<svg xmlns="http://www.w3.org/2000/svg" viewBox="0 0 512 512" width="512" height="512">
  <rect width="512" height="512" rx="64" ry="64" fill="#141414"/>
  <g transform="matrix(1.15,0,0,1.15,35.2,58.3)">
    <g transform="translate(54.839844,225)" fill="#e8e8e8">
      <path d="M 92.609375 -28.671875 L 92.609375 -58.9375 L 71.15625 -58.9375 L 71.15625 -85.28125 L 120 -85.28125 L 120 -12.640625 C 113.988281 -7.472656 107.351562 -3.5625 100.09375 -0.90625 C 92.832031 1.75 85.0625 3.078125 76.78125 3.078125 C 56.25 3.078125 40.390625 -4.050781 29.203125 -18.3125 C 18.015625 -32.582031 12.421875 -52.851562 12.421875 -79.125 C 12.421875 -105.8125 18.066406 -126.195312 29.359375 -140.28125 C 40.648438 -154.375 56.953125 -161.421875 78.265625 -161.421875 C 84.640625 -161.421875 90.90625 -160.519531 97.0625 -158.71875 C 103.226562 -156.914062 109 -154.3125 114.375 -150.90625 L 114.375 -116.1875 C 109.988281 -121.851562 104.945312 -126.117188 99.25 -128.984375 C 93.550781 -131.847656 87.300781 -133.28125 80.5 -133.28125 C 68.601562 -133.28125 59.71875 -128.800781 53.84375 -119.84375 C 47.96875 -110.882812 45.03125 -97.3125 45.03125 -79.125 C 45.03125 -61.488281 47.859375 -48.066406 53.515625 -38.859375 C 59.179688 -29.660156 67.429688 -25.0625 78.265625 -25.0625 C 81.523438 -25.0625 84.359375 -25.363281 86.765625 -25.96875 C 89.171875 -26.570312 91.117188 -27.472656 92.609375 -28.671875 Z"/>
    </g>
    <g transform="translate(185.785156,225)" fill="#e8e8e8">
      <path d="M 0 -158.5625 L 27.40625 -158.5625 L 38.765625 -42.15625 L 52.46875 -117.453125 L 78.484375 -117.453125 L 94.40625 -42.15625 L 103.328125 -158.5625 L 130.953125 -158.5625 L 112.671875 0 L 83.46875 0 L 65.421875 -83.265625 L 48.53125 0 L 19.546875 0 Z"/>
    </g>
  </g>
  <rect x="112.50" y="324.00" width="286.90" height="7" rx="3.5" fill="#4A90D9"/>
</svg>
